<?xml version="1.0" encoding="UTF-8" standalone="no"?>
<!-- Created with Inkscape (http://www.inkscape.org/) -->

<svg
   width="297mm"
   height="210mm"
   viewBox="0 0 297 210"
   version="1.1"
   id="svg1"
   xml:space="preserve"
   sodipodi:docname="logo.svg"
   inkscape:version="1.3.2 (091e20ef0f, 2023-11-25)"
   inkscape:export-filename="logo.png"
   inkscape:export-xdpi="300"
   inkscape:export-ydpi="300"
   xmlns:inkscape="http://www.inkscape.org/namespaces/inkscape"
   xmlns:sodipodi="http://sodipodi.sourceforge.net/DTD/sodipodi-0.dtd"
   xmlns="http://www.w3.org/2000/svg"
   xmlns:svg="http://www.w3.org/2000/svg"><sodipodi:namedview
     id="namedview1"
     pagecolor="#ffffff"
     bordercolor="#000000"
     borderopacity="0.25"
     inkscape:showpageshadow="2"
     inkscape:pageopacity="0.0"
     inkscape:pagecheckerboard="0"
     inkscape:deskcolor="#d1d1d1"
     inkscape:document-units="mm"
     inkscape:zoom="1.0684127"
     inkscape:cx="561.58075"
     inkscape:cy="396.85039"
     inkscape:window-width="1920"
     inkscape:window-height="1052"
     inkscape:window-x="0"
     inkscape:window-y="0"
     inkscape:window-maximized="1"
     inkscape:current-layer="layer1"
     showguides="false"
     showgrid="false"><sodipodi:guide
       position="142.17427,109.51828"
       orientation="1,0"
       id="guide50"
       inkscape:locked="false" /><sodipodi:guide
       position="178.08141,110.82512"
       orientation="1,0"
       id="guide51"
       inkscape:locked="false" /></sodipodi:namedview><defs
     id="defs1"><linearGradient
       x1="0"
       y1="0"
       x2="1"
       y2="0"
       gradientUnits="userSpaceOnUse"
       gradientTransform="matrix(30.720905,22.89465,-22.89465,30.720905,95.949131,139.24693)"
       spreadMethod="pad"
       id="linearGradient2"><stop
         style="stop-opacity:1;stop-color:#92a9ed icc-color(sRGB-IEC61966-2.1, 0.57255554, 0.66273499, 0.92941284);"
         offset="0"
         id="stop1" /><stop
         style="stop-opacity:1;stop-color:#526191 icc-color(sRGB-IEC61966-2.1, 0.32156372, 0.38037109, 0.56861877);"
         offset="1"
         id="stop2" /></linearGradient><clipPath
       clipPathUnits="userSpaceOnUse"
       id="clipPath4"><path
         d="M 0,425.197 H 732 V 0 H 0 Z"
         transform="translate(-139.626,-307.33011)"
         id="path4" /></clipPath><clipPath
       clipPathUnits="userSpaceOnUse"
       id="clipPath6"><path
         d="M 0,425.197 H 732 V 0 H 0 Z"
         transform="matrix(1.3333333,0,0,-1.3333333,0,566.92933)"
         id="path6" /></clipPath><linearGradient
       x1="0"
       y1="0"
       x2="1"
       y2="0"
       gradientUnits="userSpaceOnUse"
       gradientTransform="matrix(87.806915,-65.43782,-65.43782,-87.806915,245.74902,320.54102)"
       spreadMethod="pad"
       id="linearGradient5"><stop
         style="stop-opacity:1;stop-color:#859ce8 icc-color(sRGB-IEC61966-2.1, 0.52157593, 0.61177063, 0.90979004);"
         offset="0"
         id="stop4" /><stop
         style="stop-opacity:1;stop-color:#526191 icc-color(sRGB-IEC61966-2.1, 0.32156372, 0.38037109, 0.56861877);"
         offset="1"
         id="stop5" /></linearGradient><clipPath
       clipPathUnits="userSpaceOnUse"
       id="clipPath8"><path
         d="M 0,425.197 H 732 V 0 H 0 Z"
         transform="translate(-317.80661,-275.33941)"
         id="path8" /></clipPath><clipPath
       clipPathUnits="userSpaceOnUse"
       id="clipPath11"><path
         d="M 0,425.197 H 732 V 0 H 0 Z"
         transform="matrix(1.3333333,0,0,-1.3333333,0,566.92933)"
         id="path11" /></clipPath><clipPath
       clipPathUnits="userSpaceOnUse"
       id="clipPath9"><path
         d="M 316.812,286.245 H 336.37 V 274.29 h -19.558 z"
         transform="translate(-326.10741,-285.16411)"
         id="path9" /></clipPath><clipPath
       clipPathUnits="userSpaceOnUse"
       id="clipPath13"><path
         d="M 0,425.197 H 732 V 0 H 0 Z"
         transform="translate(-327.06351,-283.29391)"
         id="path13" /></clipPath><clipPath
       clipPathUnits="userSpaceOnUse"
       id="clipPath16"><path
         d="M 0,425.197 H 732 V 0 H 0 Z"
         transform="matrix(1.3333333,0,0,-1.3333333,0,566.92933)"
         id="path16" /></clipPath><clipPath
       clipPathUnits="userSpaceOnUse"
       id="clipPath14"><path
         d="m 317.437,273.022 h 20.495 v -10.848 h -20.495 z"
         transform="translate(-332.65921,-271.65721)"
         id="path14" /></clipPath><clipPath
       clipPathUnits="userSpaceOnUse"
       id="clipPath18"><path
         d="M 0,425.197 H 732 V 0 H 0 Z"
         transform="translate(-333.37011,-273.62701)"
         id="path18" /></clipPath><clipPath
       clipPathUnits="userSpaceOnUse"
       id="clipPath21"><path
         d="M 0,425.197 H 732 V 0 H 0 Z"
         transform="matrix(1.3333333,0,0,-1.3333333,0,566.92933)"
         id="path21" /></clipPath><clipPath
       clipPathUnits="userSpaceOnUse"
       id="clipPath19"><path
         d="m 314.175,279.222 h 29.73 v -9.595 h -29.73 z"
         transform="translate(-333.23731,-279.22121)"
         id="path19" /></clipPath><clipPath
       clipPathUnits="userSpaceOnUse"
       id="clipPath23"><path
         d="M 0,425.197 H 732 V 0 H 0 Z"
         transform="translate(-341.74221,-274.4741)"
         id="path23" /></clipPath><linearGradient
       x1="0"
       y1="0"
       x2="1"
       y2="0"
       gradientUnits="userSpaceOnUse"
       gradientTransform="matrix(30.586181,22.794247,-22.794247,30.586181,82.048343,157.33971)"
       spreadMethod="pad"
       id="linearGradient24"><stop
         style="stop-opacity:1;stop-color:#92a9ed icc-color(sRGB-IEC61966-2.1, 0.57255554, 0.66273499, 0.92941284);"
         offset="0"
         id="stop23" /><stop
         style="stop-opacity:1;stop-color:#526191 icc-color(sRGB-IEC61966-2.1, 0.32156372, 0.38037109, 0.56861877);"
         offset="1"
         id="stop24" /></linearGradient><clipPath
       clipPathUnits="userSpaceOnUse"
       id="clipPath26"><path
         d="M 0,425.197 H 732 V 0 H 0 Z"
         transform="translate(-136.8604,-211.85641)"
         id="path26" /></clipPath><clipPath
       clipPathUnits="userSpaceOnUse"
       id="clipPath29"><path
         d="M 0,425.197 H 732 V 0 H 0 Z"
         transform="matrix(1.3333333,0,0,-1.3333333,0,566.92933)"
         id="path29" /></clipPath><clipPath
       clipPathUnits="userSpaceOnUse"
       id="clipPath27"><path
         d="m 138.009,175.151 h 13.845 v -27.134 h -13.845 z"
         transform="translate(-151.85451,-157.70701)"
         id="path27" /></clipPath><clipPath
       clipPathUnits="userSpaceOnUse"
       id="clipPath31"><path
         d="M 0,425.197 H 732 V 0 H 0 Z"
         transform="translate(-138.7305,-157.70701)"
         id="path31" /></clipPath><clipPath
       clipPathUnits="userSpaceOnUse"
       id="clipPath33"><path
         d="M 0,425.197 H 732 V 0 H 0 Z"
         transform="translate(-139.8735,-156.7402)"
         id="path33" /></clipPath><clipPath
       clipPathUnits="userSpaceOnUse"
       id="clipPath36"><path
         d="M 0,425.197 H 732 V 0 H 0 Z"
         transform="matrix(1.3333333,0,0,-1.3333333,0,566.92933)"
         id="path36" /></clipPath><clipPath
       clipPathUnits="userSpaceOnUse"
       id="clipPath34"><path
         d="m 144.104,166.028 h 11.015 V 145.08 h -11.015 z"
         transform="translate(-155.11911,-152.5586)"
         id="path34" /></clipPath><clipPath
       clipPathUnits="userSpaceOnUse"
       id="clipPath38"><path
         d="M 0,425.197 H 732 V 0 H 0 Z"
         transform="translate(-144.82521,-152.5586)"
         id="path38" /></clipPath><clipPath
       clipPathUnits="userSpaceOnUse"
       id="clipPath40"><path
         d="M 0,425.197 H 732 V 0 H 0 Z"
         transform="translate(-146.4199,-155.0186)"
         id="path40" /></clipPath><linearGradient
       x1="0"
       y1="0"
       x2="1"
       y2="0"
       gradientUnits="userSpaceOnUse"
       gradientTransform="matrix(30.585863,22.79401,-22.79401,30.585863,93.556857,142.59935)"
       spreadMethod="pad"
       id="linearGradient41"><stop
         style="stop-opacity:1;stop-color:#92a9ed icc-color(sRGB-IEC61966-2.1, 0.57255554, 0.66273499, 0.92941284);"
         offset="0"
         id="stop40" /><stop
         style="stop-opacity:1;stop-color:#526191 icc-color(sRGB-IEC61966-2.1, 0.32156372, 0.38037109, 0.56861877);"
         offset="1"
         id="stop41" /></linearGradient><clipPath
       clipPathUnits="userSpaceOnUse"
       id="clipPath43"><path
         d="M 0,425.197 H 732 V 0 H 0 Z"
         transform="translate(-226.4248,-211.20311)"
         id="path43" /></clipPath><clipPath
       clipPathUnits="userSpaceOnUse"
       id="clipPath46"><path
         d="M 0,425.197 H 732 V 0 H 0 Z"
         transform="matrix(1.3333333,0,0,-1.3333333,0,566.92933)"
         id="path46" /></clipPath><clipPath
       clipPathUnits="userSpaceOnUse"
       id="clipPath44"><path
         d="m 227.576,174.498 h 13.847 v -27.141 h -13.847 z"
         transform="translate(-241.42291,-157.0547)"
         id="path44" /></clipPath><clipPath
       clipPathUnits="userSpaceOnUse"
       id="clipPath48"><path
         d="M 0,425.197 H 732 V 0 H 0 Z"
         transform="translate(-228.2959,-157.0547)"
         id="path48" /></clipPath><clipPath
       clipPathUnits="userSpaceOnUse"
       id="clipPath50"><path
         d="M 0,425.197 H 732 V 0 H 0 Z"
         transform="translate(-229.44531,-156.082)"
         id="path50" /></clipPath><clipPath
       clipPathUnits="userSpaceOnUse"
       id="clipPath53"><path
         d="M 0,425.197 H 732 V 0 H 0 Z"
         transform="matrix(1.3333333,0,0,-1.3333333,0,566.92933)"
         id="path53" /></clipPath><clipPath
       clipPathUnits="userSpaceOnUse"
       id="clipPath51"><path
         d="m 233.677,165.376 h 11.012 v -20.945 h -11.012 z"
         transform="translate(-244.68951,-151.9072)"
         id="path51" /></clipPath><clipPath
       clipPathUnits="userSpaceOnUse"
       id="clipPath55"><path
         d="M 0,425.197 H 732 V 0 H 0 Z"
         transform="translate(-234.39841,-151.9072)"
         id="path55" /></clipPath><clipPath
       clipPathUnits="userSpaceOnUse"
       id="clipPath57"><path
         d="M 0,425.197 H 732 V 0 H 0 Z"
         transform="translate(-235.9912,-154.36621)"
         id="path57" /></clipPath><clipPath
       clipPathUnits="userSpaceOnUse"
       id="clipPath59"><path
         d="M 0,425.197 H 732 V 0 H 0 Z"
         transform="matrix(1.3333333,0,0,-1.3333333,0,566.92933)"
         id="path59" /></clipPath><linearGradient
       x1="0"
       y1="0"
       x2="1"
       y2="0"
       gradientUnits="userSpaceOnUse"
       gradientTransform="matrix(84.159851,-62.719849,-62.719849,-84.159851,186.50342,244.00293)"
       spreadMethod="pad"
       id="linearGradient58"><stop
         style="stop-opacity:1;stop-color:#859ce8 icc-color(sRGB-IEC61966-2.1, 0.52157593, 0.61177063, 0.90979004);"
         offset="0"
         id="stop57" /><stop
         style="stop-opacity:1;stop-color:#526191 icc-color(sRGB-IEC61966-2.1, 0.32156372, 0.38037109, 0.56861877);"
         offset="1"
         id="stop58" /></linearGradient><clipPath
       clipPathUnits="userSpaceOnUse"
       id="clipPath61"><path
         d="M 0,425.197 H 732 V 0 H 0 Z"
         transform="translate(-171.8418,-286.20071)"
         id="path61" /></clipPath><linearGradient
       x1="0"
       y1="0"
       x2="1"
       y2="0"
       gradientUnits="userSpaceOnUse"
       gradientTransform="matrix(30.876209,23.010389,-23.010389,30.876204,90.033556,147.24007)"
       spreadMethod="pad"
       id="linearGradient62"><stop
         style="stop-opacity:1;stop-color:#92a9ed icc-color(sRGB-IEC61966-2.1, 0.57255554, 0.66273499, 0.92941284);"
         offset="0"
         id="stop61" /><stop
         style="stop-opacity:1;stop-color:#526191 icc-color(sRGB-IEC61966-2.1, 0.32156372, 0.38037109, 0.56861877);"
         offset="1"
         id="stop62" /></linearGradient><clipPath
       clipPathUnits="userSpaceOnUse"
       id="clipPath64"><path
         d="M 0,425.197 H 732 V 0 H 0 Z"
         transform="translate(-86.891102,-147.0898)"
         id="path64" /></clipPath><linearGradient
       x1="0"
       y1="0"
       x2="1"
       y2="0"
       gradientUnits="userSpaceOnUse"
       gradientTransform="matrix(20.443363,29.79516,-29.79516,20.443363,47.742773,139.59368)"
       spreadMethod="pad"
       id="linearGradient65"><stop
         style="stop-opacity:1;stop-color:#fafbff icc-color(sRGB-IEC61966-2.1, 0.9803772, 0.98431396, 1);"
         offset="0"
         id="stop64" /><stop
         style="stop-opacity:1;stop-color:#91a0db icc-color(sRGB-IEC61966-2.1, 0.56861877, 0.62745667, 0.85882568);"
         offset="1"
         id="stop65" /></linearGradient><linearGradient
       x1="0"
       y1="0"
       x2="1"
       y2="0"
       gradientUnits="userSpaceOnUse"
       gradientTransform="matrix(23.821192,34.718179,-34.718179,23.821192,81.402389,114.94402)"
       spreadMethod="pad"
       id="linearGradient67"><stop
         style="stop-opacity:1;stop-color:#fafbff icc-color(sRGB-IEC61966-2.1, 0.9803772, 0.98431396, 1);"
         offset="0"
         id="stop66" /><stop
         style="stop-opacity:1;stop-color:#91a0db icc-color(sRGB-IEC61966-2.1, 0.56861877, 0.62745667, 0.85882568);"
         offset="1"
         id="stop67" /></linearGradient><linearGradient
       x1="0"
       y1="0"
       x2="1"
       y2="0"
       gradientUnits="userSpaceOnUse"
       gradientTransform="matrix(30.57029,22.782405,-22.782405,30.570285,81.563273,158.09832)"
       spreadMethod="pad"
       id="linearGradient69"><stop
         style="stop-opacity:1;stop-color:#92a9ed icc-color(sRGB-IEC61966-2.1, 0.57255554, 0.66273499, 0.92941284);"
         offset="0"
         id="stop68" /><stop
         style="stop-opacity:1;stop-color:#526191 icc-color(sRGB-IEC61966-2.1, 0.32156372, 0.38037109, 0.56861877);"
         offset="1"
         id="stop69" /></linearGradient><clipPath
       clipPathUnits="userSpaceOnUse"
       id="clipPath71"><path
         d="M 0,425.197 H 732 V 0 H 0 Z"
         transform="translate(-155.2368,-206.56351)"
         id="path71" /></clipPath><clipPath
       clipPathUnits="userSpaceOnUse"
       id="clipPath74"><path
         d="M 0,425.197 H 732 V 0 H 0 Z"
         transform="matrix(1.3333333,0,0,-1.3333333,0,566.92933)"
         id="path74" /></clipPath><clipPath
       clipPathUnits="userSpaceOnUse"
       id="clipPath72"><path
         d="m 157.339,160.992 h 18.478 v -25.209 h -18.478 z"
         transform="translate(-175.8174,-144.78421)"
         id="path72" /></clipPath><clipPath
       clipPathUnits="userSpaceOnUse"
       id="clipPath76"><path
         d="M 0,425.197 H 732 V 0 H 0 Z"
         transform="translate(-158.0601,-144.78421)"
         id="path76" /></clipPath><clipPath
       clipPathUnits="userSpaceOnUse"
       id="clipPath78"><path
         d="M 0,425.197 H 732 V 0 H 0 Z"
         transform="translate(-158.91651,-144.1885)"
         id="path78" /></clipPath><clipPath
       clipPathUnits="userSpaceOnUse"
       id="clipPath81"><path
         d="M 0,425.197 H 732 V 0 H 0 Z"
         transform="matrix(1.3333333,0,0,-1.3333333,0,566.92933)"
         id="path81" /></clipPath><clipPath
       clipPathUnits="userSpaceOnUse"
       id="clipPath79"><path
         d="m 164.207,165.467 h 19.138 V 132.19 h -19.138 z"
         transform="translate(-183.3447,-144.08011)"
         id="path79" /></clipPath><clipPath
       clipPathUnits="userSpaceOnUse"
       id="clipPath83"><path
         d="M 0,425.197 H 732 V 0 H 0 Z"
         transform="translate(-164.9272,-144.08011)"
         id="path83" /></clipPath><clipPath
       clipPathUnits="userSpaceOnUse"
       id="clipPath85"><path
         d="M 0,425.197 H 732 V 0 H 0 Z"
         transform="translate(-166.7866,-142.89061)"
         id="path85" /></clipPath><clipPath
       clipPathUnits="userSpaceOnUse"
       id="clipPath88"><path
         d="M 0,425.197 H 732 V 0 H 0 Z"
         transform="matrix(1.3333333,0,0,-1.3333333,0,566.92933)"
         id="path88" /></clipPath><clipPath
       clipPathUnits="userSpaceOnUse"
       id="clipPath86"><path
         d="m 174.596,155.701 h 13.769 v -23.554 h -13.769 z"
         transform="translate(-188.3652,-140.5498)"
         id="path86" /></clipPath><clipPath
       clipPathUnits="userSpaceOnUse"
       id="clipPath90"><path
         d="M 0,425.197 H 732 V 0 H 0 Z"
         transform="translate(-175.31691,-140.5498)"
         id="path90" /></clipPath><clipPath
       clipPathUnits="userSpaceOnUse"
       id="clipPath92"><path
         d="M 0,425.197 H 732 V 0 H 0 Z"
         transform="translate(-177.4912,-143.3203)"
         id="path92" /></clipPath><linearGradient
       x1="0"
       y1="0"
       x2="1"
       y2="0"
       gradientUnits="userSpaceOnUse"
       gradientTransform="matrix(30.676528,22.861577,-22.861577,30.676528,95.394469,139.9611)"
       spreadMethod="pad"
       id="linearGradient93"><stop
         style="stop-opacity:1;stop-color:#92a9ed icc-color(sRGB-IEC61966-2.1, 0.57255554, 0.66273499, 0.92941284);"
         offset="0"
         id="stop92" /><stop
         style="stop-opacity:1;stop-color:#526191 icc-color(sRGB-IEC61966-2.1, 0.32156372, 0.38037109, 0.56861877);"
         offset="1"
         id="stop93" /></linearGradient><clipPath
       clipPathUnits="userSpaceOnUse"
       id="clipPath95"><path
         d="M 0,425.197 H 732 V 0 H 0 Z"
         transform="translate(-303.39061,-212.8643)"
         id="path95" /></clipPath><clipPath
       clipPathUnits="userSpaceOnUse"
       id="clipPath98"><path
         d="M 0,425.197 H 732 V 0 H 0 Z"
         transform="matrix(1.3333333,0,0,-1.3333333,0,566.92933)"
         id="path98" /></clipPath><clipPath
       clipPathUnits="userSpaceOnUse"
       id="clipPath96"><path
         d="m 246.939,162.486 h 18.479 v -25.207 h -18.479 z"
         transform="translate(-265.41801,-146.27641)"
         id="path96" /></clipPath><clipPath
       clipPathUnits="userSpaceOnUse"
       id="clipPath100"><path
         d="M 0,425.197 H 732 V 0 H 0 Z"
         transform="translate(-247.66111,-146.27641)"
         id="path100" /></clipPath><clipPath
       clipPathUnits="userSpaceOnUse"
       id="clipPath102"><path
         d="M 0,425.197 H 732 V 0 H 0 Z"
         transform="translate(-248.51661,-145.6846)"
         id="path102" /></clipPath><clipPath
       clipPathUnits="userSpaceOnUse"
       id="clipPath105"><path
         d="M 0,425.197 H 732 V 0 H 0 Z"
         transform="matrix(1.3333333,0,0,-1.3333333,0,566.92933)"
         id="path105" /></clipPath><clipPath
       clipPathUnits="userSpaceOnUse"
       id="clipPath103"><path
         d="m 253.807,166.959 h 19.139 v -33.275 h -19.139 z"
         transform="translate(-272.94631,-145.57621)"
         id="path103" /></clipPath><clipPath
       clipPathUnits="userSpaceOnUse"
       id="clipPath107"><path
         d="M 0,425.197 H 732 V 0 H 0 Z"
         transform="translate(-254.5273,-145.57621)"
         id="path107" /></clipPath><clipPath
       clipPathUnits="userSpaceOnUse"
       id="clipPath109"><path
         d="M 0,425.197 H 732 V 0 H 0 Z"
         transform="translate(-256.38771,-144.3838)"
         id="path109" /></clipPath><clipPath
       clipPathUnits="userSpaceOnUse"
       id="clipPath112"><path
         d="M 0,425.197 H 732 V 0 H 0 Z"
         transform="matrix(1.3333333,0,0,-1.3333333,0,566.92933)"
         id="path112" /></clipPath><clipPath
       clipPathUnits="userSpaceOnUse"
       id="clipPath110"><path
         d="m 264.196,157.196 h 13.769 v -23.555 h -13.769 z"
         transform="translate(-277.9648,-142.04491)"
         id="path110" /></clipPath><clipPath
       clipPathUnits="userSpaceOnUse"
       id="clipPath114"><path
         d="M 0,425.197 H 732 V 0 H 0 Z"
         transform="translate(-264.916,-142.04491)"
         id="path114" /></clipPath><clipPath
       clipPathUnits="userSpaceOnUse"
       id="clipPath116"><path
         d="M 0,425.197 H 732 V 0 H 0 Z"
         transform="translate(-267.0928,-144.8135)"
         id="path116" /></clipPath><clipPath
       clipPathUnits="userSpaceOnUse"
       id="clipPath118"><path
         d="M 0,425.197 H 732 V 0 H 0 Z"
         transform="translate(-103.0713,-267.7061)"
         id="path118" /></clipPath><clipPath
       clipPathUnits="userSpaceOnUse"
       id="clipPath120"><path
         d="M 0,425.197 H 732 V 0 H 0 Z"
         transform="translate(-121.9263,-241.7231)"
         id="path120" /></clipPath><clipPath
       clipPathUnits="userSpaceOnUse"
       id="clipPath122"><path
         d="M 0,425.197 H 732 V 0 H 0 Z"
         transform="translate(-128.3271,-249.53131)"
         id="path122" /></clipPath><clipPath
       clipPathUnits="userSpaceOnUse"
       id="clipPath124"><path
         d="M 0,425.197 H 732 V 0 H 0 Z"
         transform="translate(-127.8115,-249.5)"
         id="path124" /></clipPath><clipPath
       clipPathUnits="userSpaceOnUse"
       id="clipPath126"><path
         d="M 0,425.197 H 732 V 0 H 0 Z"
         transform="translate(-125.6035,-250.53961)"
         id="path126" /></clipPath><clipPath
       clipPathUnits="userSpaceOnUse"
       id="clipPath128"><path
         d="M 0,425.197 H 732 V 0 H 0 Z"
         transform="translate(-116.87841,-254.19731)"
         id="path128" /></clipPath><clipPath
       clipPathUnits="userSpaceOnUse"
       id="clipPath130"><path
         d="M 0,425.197 H 732 V 0 H 0 Z"
         transform="translate(-178.668,-213.2939)"
         id="path130" /></clipPath><clipPath
       clipPathUnits="userSpaceOnUse"
       id="clipPath132"><path
         d="M 0,425.197 H 732 V 0 H 0 Z"
         transform="translate(-228.3184,-264.69191)"
         id="path132" /></clipPath><clipPath
       clipPathUnits="userSpaceOnUse"
       id="clipPath134"><path
         d="M 0,425.197 H 732 V 0 H 0 Z"
         transform="translate(-257.33791,-213.2939)"
         id="path134" /></clipPath><clipPath
       clipPathUnits="userSpaceOnUse"
       id="clipPath136"><path
         d="M 0,425.197 H 732 V 0 H 0 Z"
         transform="translate(-178.668,-213.2939)"
         id="path136" /></clipPath><clipPath
       clipPathUnits="userSpaceOnUse"
       id="clipPath138"><path
         d="M 0,425.197 H 732 V 0 H 0 Z"
         transform="translate(-228.3184,-264.69191)"
         id="path138" /></clipPath><clipPath
       clipPathUnits="userSpaceOnUse"
       id="clipPath140"><path
         d="M 0,425.197 H 732 V 0 H 0 Z"
         transform="translate(-257.33791,-213.2939)"
         id="path140" /></clipPath><linearGradient
       x1="0"
       y1="0"
       x2="1"
       y2="0"
       gradientUnits="userSpaceOnUse"
       gradientTransform="matrix(30.629449,22.826491,-22.826491,30.629444,97.225537,137.58191)"
       spreadMethod="pad"
       id="linearGradient141"><stop
         style="stop-opacity:1;stop-color:#92a9ed icc-color(sRGB-IEC61966-2.1, 0.57255554, 0.66273499, 0.92941284);"
         offset="0"
         id="stop140" /><stop
         style="stop-opacity:1;stop-color:#526191 icc-color(sRGB-IEC61966-2.1, 0.32156372, 0.38037109, 0.56861877);"
         offset="1"
         id="stop141" /></linearGradient><clipPath
       clipPathUnits="userSpaceOnUse"
       id="clipPath143"><path
         d="M 0,425.197 H 732 V 0 H 0 Z"
         transform="translate(-166.9561,-308.85301)"
         id="path143" /></clipPath><linearGradient
       x1="0"
       y1="0"
       x2="1"
       y2="0"
       gradientUnits="userSpaceOnUse"
       gradientTransform="matrix(24.345417,35.482211,-35.482211,24.345417,80.82516,115.31092)"
       spreadMethod="pad"
       id="linearGradient144"><stop
         style="stop-opacity:1;stop-color:#fafbff icc-color(sRGB-IEC61966-2.1, 0.9803772, 0.98431396, 1);"
         offset="0"
         id="stop143" /><stop
         style="stop-opacity:1;stop-color:#91a0db icc-color(sRGB-IEC61966-2.1, 0.56861877, 0.62745667, 0.85882568);"
         offset="1"
         id="stop144" /></linearGradient><clipPath
       clipPathUnits="userSpaceOnUse"
       id="clipPath146"><path
         d="M 0,425.197 H 732 V 0 H 0 Z"
         transform="translate(-150.2905,-236.88091)"
         id="path146" /></clipPath><clipPath
       clipPathUnits="userSpaceOnUse"
       id="clipPath148"><path
         d="M 0,425.197 H 732 V 0 H 0 Z"
         transform="translate(-156.53811,-243.92141)"
         id="path148" /></clipPath></defs><g
     inkscape:label="Layer 1"
     inkscape:groupmode="layer"
     id="layer1"><g
       id="g50"
       transform="matrix(1.4153489,0,0,1.4153489,-27.38515,-180.4203)"><g
         id="g1"
         transform="matrix(1.9482585,0,0,1.9482585,-87.575785,-87.752678)"><path
           id="path2"
           d="m 79.034531,118.18289 c -3.120672,2.06693 -7.62635,7.0545 -7.62635,7.0545 v 0 l 15.228005,20.92008 c 0,0 -1.264003,-2.61232 2.272241,-4.00756 v 0 c 5.904795,-2.32939 5.861403,-7.79145 3.263548,-15.12394 v 0 c -2.867378,-8.08707 -6.699603,-9.87178 -9.504892,-9.87142 v 0 c -1.840088,0 -3.2385,0.76799 -3.632552,1.02834"
           style="fill:url(#linearGradient2);stroke:none;stroke-width:0.352778" /><path
           id="path3"
           d="m 0,0 c -8.973,-5.944 -21.5,-19.762 -22.029,-20.346 -0.783,-0.87 -0.691,-2.191 0.211,-2.946 0.9,-0.755 2.267,-0.668 3.051,0.201 0.127,0.142 12.699,14.009 21.216,19.649 0.255,0.172 6.468,4.192 14.035,1.773 7.958,-2.545 14.852,-11.467 19.931,-25.796 8.085,-22.814 5.688,-34.859 -8.02,-40.263 -3.955,-1.564 -6.559,-3.823 -7.736,-6.73 -1.555,-3.834 0.083,-7.297 0.154,-7.445 0.5,-1.039 1.77,-1.481 2.849,-1.005 1.081,0.471 1.561,1.705 1.079,2.752 -0.008,0.02 -0.932,2.073 -0.032,4.226 0.742,1.775 2.532,3.239 5.323,4.337 20.679,8.16 16.46,28.592 10.476,45.481 C 34.894,-10.278 27.271,-0.724 17.848,2.292 8.428,5.305 0.833,0.549 0,0"
           style="fill:#3a3654 icc-color(sRGB-IEC61966-2, 0.1, 0.22698975, 0.21199036, 0.32899475);fill-opacity:1;fill-rule:nonzero;stroke:none"
           transform="matrix(0.35277776,0,0,-0.35277776,78.603085,117.57538)"
           clip-path="url(#clipPath4)" /><g
           id="g5"
           clip-path="url(#clipPath6)"
           transform="matrix(0.26458333,0,0,0.26458333,29.346136,75.994554)"><path
             d="m 290.982,277.426 h 26.825 c 2.251,0 4.074,-1.493 4.074,-3.329 0,-1.837 -1.823,-3.327 -4.074,-3.327 h -21.055 z"
             transform="matrix(1.3333333,0,0,-1.3333333,0,566.92933)"
             style="fill:url(#linearGradient5);stroke:none"
             id="path5" /></g><path
           id="path7"
           d="M 0,0 C 1.126,0 1.909,-0.656 1.909,-1.243 1.909,-1.829 1.126,-2.485 0,-2.485 H -20.043 C -20.475,-1.99 -21.119,-1.24 -22.195,0 Z m -31.451,4.172 9.386,-10.83 H 0 c 3.44,0 6.236,2.429 6.236,5.415 C 6.236,1.745 3.44,4.172 0,4.172 Z"
           style="fill:#3a3654 icc-color(sRGB-IEC61966-2, 0.1, 0.22698975, 0.21199036, 0.32899475);fill-opacity:1;fill-rule:nonzero;stroke:none"
           transform="matrix(0.35277776,0,0,-0.35277776,141.46124,128.86098)"
           clip-path="url(#clipPath8)" /><g
           id="g10"
           clip-path="url(#clipPath11)"
           transform="matrix(0.26458333,0,0,0.26458333,29.346136,75.994554)"><path
             d="M 0,0 C 3.688,1.757 7.998,1.327 9.637,-0.959 11.268,-3.251 9.604,-6.524 5.916,-8.288 2.235,-10.043 -7.415,-12.166 -9.051,-9.872 -10.688,-7.585 -3.682,-1.756 0,0"
             style="fill:#94aae0 icc-color(sRGB-IEC61966-2, 0.1, 0.57998657, 0.66699219, 0.87799072);fill-opacity:1;fill-rule:nonzero;stroke:none"
             transform="matrix(1.3333333,0,0,-1.3333333,434.80987,186.71053)"
             clip-path="url(#clipPath9)"
             id="path10" /></g><path
           id="path12"
           d="M 0,0 V 0 C 2.861,1.362 6.002,0.978 6.898,-0.275 7.146,-0.626 7.205,-1.029 7.075,-1.511 6.844,-2.381 5.913,-3.635 3.998,-4.55 0.442,-6.244 -5.873,-7.238 -7.824,-6.758 -7.104,-5.142 -3.154,-1.506 0,0 m -1.914,3.738 v 0 C -4.998,2.272 -11.27,-2.405 -12.262,-6.103 l 0.476,-3.082 c 2.963,-4.162 14.917,-0.434 17.704,0.898 2.776,1.325 4.724,3.413 5.346,5.728 0.445,1.651 0.16,3.303 -0.803,4.651 C 8.202,5.249 2.77,5.971 -1.914,3.738"
           style="fill:#3a3654 icc-color(sRGB-IEC61966-2, 0.1, 0.22698975, 0.21199036, 0.32899475);fill-opacity:1;fill-rule:nonzero;stroke:none"
           transform="matrix(0.35277776,0,0,-0.35277776,144.72687,126.05481)"
           clip-path="url(#clipPath13)" /><g
           id="g15"
           clip-path="url(#clipPath16)"
           transform="matrix(0.26458333,0,0,0.26458333,29.346136,75.994554)"><path
             d="M 0,0 C 3.954,-1.32 6.156,-4.376 4.937,-6.831 3.705,-9.287 -0.489,-10.2 -4.44,-8.876 -8.386,-7.559 -16.32,-2.593 -15.096,-0.142 -13.866,2.32 -3.944,1.32 0,0"
             style="fill:#94aae0 icc-color(sRGB-IEC61966-2, 0.1, 0.57998657, 0.66699219, 0.87799072);fill-opacity:1;fill-rule:nonzero;stroke:none"
             transform="matrix(1.3333333,0,0,-1.3333333,443.5456,204.71973)"
             clip-path="url(#clipPath14)"
             id="path15" /></g><path
           id="path17"
           d="m 0,0 h -0.004 z m -1.42,-3.939 h 0.002 c 2.124,-0.713 3.287,-1.898 3.664,-2.772 0.287,-0.668 0.093,-1.06 0.027,-1.188 -0.65,-1.302 -3.665,-1.996 -6.715,-0.975 -3.488,1.163 -8.176,4.44 -9.059,5.948 1.637,0.548 8.267,0.263 12.081,-1.013 m -16.335,2.733 0.002,-3.027 c 1.524,-3.538 8.551,-7.469 11.895,-8.586 5.027,-1.685 10.315,-0.319 12.03,3.107 0.365,0.739 0.548,1.531 0.548,2.336 0,0.757 -0.16,1.523 -0.483,2.274 C 5.269,-2.857 2.994,-1 -0.004,0 -2.995,1.003 -15.495,3.321 -17.755,-1.206"
           style="fill:#3a3654 icc-color(sRGB-IEC61966-2, 0.1, 0.22698975, 0.21199036, 0.32899475);fill-opacity:1;fill-rule:nonzero;stroke:none"
           transform="matrix(0.35277776,0,0,-0.35277776,146.9517,129.46508)"
           clip-path="url(#clipPath18)" /><g
           id="g20"
           clip-path="url(#clipPath21)"
           transform="matrix(0.26458333,0,0,0.26458333,29.346136,75.994554)"><path
             d="M 0,0 C 5.867,0.038 10.646,-2.077 10.668,-4.728 10.697,-7.378 5.968,-9.556 0.099,-9.594 -5.76,-9.633 -19.036,-7.58 -19.063,-4.932 -19.09,-2.279 -5.858,-0.044 0,0"
             style="fill:#94aae0 icc-color(sRGB-IEC61966-2, 0.1, 0.57998657, 0.66699219, 0.87799072);fill-opacity:1;fill-rule:nonzero;stroke:none"
             transform="matrix(1.3333333,0,0,-1.3333333,444.3164,194.6344)"
             clip-path="url(#clipPath19)"
             id="path20" /></g><path
           id="path24"
           d="m 78.390359,170.38201 c 0,4.66055 4.622799,6.3313 10.327568,6.3313 v 0 c 5.704064,0 10.32898,-1.67075 10.32898,-6.3313 v 0 -18.90289 l -20.656548,-0.22261 z"
           style="fill:url(#linearGradient24);stroke:none;stroke-width:0.352778" /><path
           id="path25"
           d="m 0,0 v -54.214 c 0,-12.921 11.162,-20.034 31.438,-20.034 20.275,0 31.441,7.113 31.441,20.034 v 53.582 c 0,1.153 -0.969,2.088 -2.163,2.088 -1.195,0 -2.163,-0.935 -2.163,-2.088 v -53.582 c 0,-13.109 -14.743,-15.86 -27.115,-15.86 -12.368,0 -27.111,2.751 -27.111,15.86 L 4.327,0 c 0,1.151 -0.97,2.086 -2.164,2.086 C 0.969,2.086 0,1.151 0,0"
           style="fill:#3a3654 icc-color(sRGB-IEC61966-2, 0.1, 0.22698975, 0.21199036, 0.32899475);fill-opacity:1;fill-rule:nonzero;stroke:none"
           transform="matrix(0.35277776,0,0,-0.35277776,77.627442,151.25637)"
           clip-path="url(#clipPath26)" /><g
           id="g28"
           clip-path="url(#clipPath29)"
           transform="matrix(0.26458333,0,0,0.26458333,29.346136,75.994554)"><path
             d="m 0,0 c 0,-5.346 -3.099,-9.69 -6.922,-9.69 -3.825,0 -6.924,4.344 -6.924,9.69 0,5.354 3.099,17.444 6.924,17.444 C -3.099,17.444 0,5.354 0,0"
             style="fill:#94aae0 icc-color(sRGB-IEC61966-2, 0.1, 0.57998657, 0.66699219, 0.87799072);fill-opacity:1;fill-rule:nonzero;stroke:none"
             transform="matrix(1.3333333,0,0,-1.3333333,202.47267,356.65333)"
             clip-path="url(#clipPath27)"
             id="path28" /></g><path
           id="path30"
           d="m 0,0 c 0,5.822 3.284,16.75 6.202,16.75 2.916,0 6.201,-10.928 6.201,-16.75 0,-4.962 -2.78,-8.996 -6.201,-8.996 C 2.783,-8.996 0,-4.962 0,0 m -1.444,0 c 0,-5.728 3.429,-10.389 7.646,-10.389 4.215,0 7.642,4.661 7.642,10.389 0,5.23 -3.045,18.143 -7.642,18.143 C 1.605,18.143 -1.444,5.23 -1.444,0"
           style="fill:#3a3654 icc-color(sRGB-IEC61966-2, 0.1, 0.22698975, 0.21199036, 0.32899475);fill-opacity:1;fill-rule:nonzero;stroke:none"
           transform="matrix(0.35277776,0,0,-0.35277776,78.287173,170.35908)"
           clip-path="url(#clipPath31)" /><path
           id="path32"
           d="M 0,0 C 0,5.149 3.747,14.42 6.482,14.42 6.744,14.42 7,14.288 7.248,14.09 6.564,15.722 5.781,16.802 4.952,16.802 2.214,16.802 0,5.147 0,0"
           style="fill:#afc7ef icc-color(sRGB-IEC61966-2, 0.1, 0.68598938, 0.77999878, 0.93699646);fill-opacity:1;fill-rule:nonzero;stroke:none"
           transform="matrix(0.35277776,0,0,-0.35277776,78.690398,170.70015)"
           clip-path="url(#clipPath33)" /><g
           id="g35"
           clip-path="url(#clipPath36)"
           transform="matrix(0.26458333,0,0,0.26458333,29.346136,75.994554)"><path
             d="m 0,0 c 0,-4.13 -2.463,-7.479 -5.504,-7.479 -3.044,0 -5.511,3.349 -5.511,7.479 0,4.143 2.467,13.47 5.511,13.47 C -2.463,13.47 0,4.143 0,0"
             style="fill:#94aae0 icc-color(sRGB-IEC61966-2, 0.1, 0.57998657, 0.66699219, 0.87799072);fill-opacity:1;fill-rule:nonzero;stroke:none"
             transform="matrix(1.3333333,0,0,-1.3333333,206.82547,363.51787)"
             clip-path="url(#clipPath34)"
             id="path35" /></g><path
           id="path37"
           d="M 0,0 C 0,4.329 2.587,12.773 4.79,12.773 6.993,12.773 9.572,4.329 9.572,0 9.572,-3.739 7.426,-6.783 4.79,-6.783 2.147,-6.783 0,-3.739 0,0 m -1.442,0 c 0,-4.506 2.796,-8.175 6.232,-8.175 3.431,0 6.225,3.669 6.225,8.175 0,3.526 -2.209,14.166 -6.225,14.166 C 0.767,14.166 -1.442,3.526 -1.442,0"
           style="fill:#3a3654 icc-color(sRGB-IEC61966-2, 0.1, 0.22698975, 0.21199036, 0.32899475);fill-opacity:1;fill-rule:nonzero;stroke:none"
           transform="matrix(0.35277776,0,0,-0.35277776,80.437248,172.17532)"
           clip-path="url(#clipPath38)" /><path
           id="path39"
           d="M 0,0 C -0.277,2.943 2.305,7.828 4.316,8.186 4.504,8.21 4.698,8.165 4.891,8.084 4.301,8.93 3.634,9.604 3.063,9.34 1.071,8.39 -0.277,2.934 0,0"
           style="fill:#afc7ef icc-color(sRGB-IEC61966-2, 0.1, 0.68598938, 0.77999878, 0.93699646);fill-opacity:1;fill-rule:nonzero;stroke:none"
           transform="matrix(0.35277776,0,0,-0.35277776,80.999821,171.30749)"
           clip-path="url(#clipPath40)" /><path
           id="path41"
           d="m 109.98725,170.61202 c 0,4.66196 4.62457,6.3313 10.32863,6.3313 v 0 c 5.70406,0 10.32898,-1.66934 10.32898,-6.3313 v 0 -18.90183 l -20.65761,-0.22331 z"
           style="fill:url(#linearGradient41);stroke:none;stroke-width:0.352778" /><path
           id="path42"
           d="m 0,0 v -54.214 c 0,-12.918 11.167,-20.033 31.442,-20.033 9.126,0 16.445,1.44 21.753,4.28 6.337,3.393 9.689,8.839 9.689,15.753 v 53.581 c 0,1.153 -0.969,2.086 -2.163,2.086 -1.195,0 -2.161,-0.933 -2.161,-2.086 v -53.581 c 0,-5.459 -2.444,-9.417 -7.465,-12.105 -4.594,-2.455 -11.388,-3.754 -19.653,-3.754 -12.37,0 -27.113,2.754 -27.113,15.859 L 4.329,0 C 4.329,1.153 3.357,2.088 2.164,2.088 0.97,2.088 0,1.153 0,0"
           style="fill:#3a3654 icc-color(sRGB-IEC61966-2, 0.1, 0.22698975, 0.21199036, 0.32899475);fill-opacity:1;fill-rule:nonzero;stroke:none"
           transform="matrix(0.35277776,0,0,-0.35277776,109.22377,151.48685)"
           clip-path="url(#clipPath43)" /><g
           id="g45"
           clip-path="url(#clipPath46)"
           transform="matrix(0.26458333,0,0,0.26458333,29.346136,75.994554)"><path
             d="m 0,0 c 0,-5.345 -3.098,-9.697 -6.92,-9.697 -3.83,0 -6.927,4.352 -6.927,9.697 0,5.352 3.097,17.443 6.927,17.443 C -3.098,17.443 0,5.352 0,0"
             style="fill:#7a8ece icc-color(sRGB-IEC61966-2, 0.1, 0.47799683, 0.55699158, 0.80799866);fill-opacity:1;fill-rule:nonzero;stroke:none"
             transform="matrix(1.3333333,0,0,-1.3333333,321.8972,357.52307)"
             clip-path="url(#clipPath44)"
             id="path45" /></g><path
           id="path47"
           d="m 0,0 c 0,2.733 0.82,7.056 1.993,10.51 1.306,3.847 2.92,6.238 4.214,6.238 2.914,0 6.199,-10.926 6.199,-16.748 0,-4.964 -2.78,-9 -6.199,-9 C 2.783,-9 0,-4.964 0,0 M 0.623,10.943 C -0.594,7.366 -1.442,2.864 -1.442,0 c 0,-5.729 3.43,-10.392 7.649,-10.392 4.214,0 7.641,4.663 7.641,10.392 0,5.231 -3.045,18.138 -7.641,18.138 -2.599,0 -4.471,-3.91 -5.584,-7.195"
           style="fill:#3a3654 icc-color(sRGB-IEC61966-2, 0.1, 0.22698975, 0.21199036, 0.32899475);fill-opacity:1;fill-rule:nonzero;stroke:none"
           transform="matrix(0.35277776,0,0,-0.35277776,109.88385,170.5892)"
           clip-path="url(#clipPath48)" /><path
           id="path49"
           d="m 0,0 c 0,5.15 3.744,14.427 6.479,14.427 0.263,0 0.519,-0.135 0.767,-0.331 C 6.561,15.725 5.779,16.807 4.95,16.807 2.211,16.807 0,5.15 0,0"
           style="fill:#8ba4d6 icc-color(sRGB-IEC61966-2, 0.1, 0.54499817, 0.64299011, 0.83898926);fill-opacity:1;fill-rule:nonzero;stroke:none"
           transform="matrix(0.35277776,0,0,-0.35277776,110.28934,170.93234)"
           clip-path="url(#clipPath50)" /><g
           id="g52"
           clip-path="url(#clipPath53)"
           transform="matrix(0.26458333,0,0,0.26458333,29.346136,75.994554)"><path
             d="m 0,0 c 0,-4.136 -2.462,-7.477 -5.506,-7.477 -3.041,0 -5.507,3.341 -5.507,7.477 0,4.142 2.466,13.469 5.507,13.469 C -2.462,13.469 0,4.142 0,0"
             style="fill:#7a8ece icc-color(sRGB-IEC61966-2, 0.1, 0.47799683, 0.55699158, 0.80799866);fill-opacity:1;fill-rule:nonzero;stroke:none"
             transform="matrix(1.3333333,0,0,-1.3333333,326.25267,364.3864)"
             clip-path="url(#clipPath51)"
             id="path52" /></g><path
           id="path54"
           d="M 0,0 C 0,4.329 2.582,12.771 4.785,12.771 6.985,12.771 9.569,4.329 9.569,0 9.569,-3.739 7.422,-6.784 4.785,-6.784 2.146,-6.784 0,-3.739 0,0 m -1.442,0 c 0,-4.511 2.793,-8.175 6.227,-8.175 3.434,0 6.227,3.664 6.227,8.175 0,3.525 -2.21,14.163 -6.227,14.163 C 0.765,14.163 -1.442,3.525 -1.442,0"
           style="fill:#3a3654 icc-color(sRGB-IEC61966-2, 0.1, 0.22698975, 0.21199036, 0.32899475);fill-opacity:1;fill-rule:nonzero;stroke:none"
           transform="matrix(0.35277776,0,0,-0.35277776,112.03668,172.40512)"
           clip-path="url(#clipPath55)" /><path
           id="path56"
           d="M 0,0 C -0.28,2.939 2.302,7.823 4.314,8.183 4.504,8.209 4.698,8.165 4.889,8.084 4.299,8.93 3.632,9.604 3.061,9.34 1.068,8.389 -0.28,2.934 0,0"
           style="fill:#8ba4d6 icc-color(sRGB-IEC61966-2, 0.1, 0.54499817, 0.64299011, 0.83898926);fill-opacity:1;fill-rule:nonzero;stroke:none"
           transform="matrix(0.35277776,0,0,-0.35277776,112.59859,171.53764)"
           clip-path="url(#clipPath57)" /><g
           id="g58"
           clip-path="url(#clipPath59)"
           transform="matrix(0.26458333,0,0,0.26458333,29.346136,75.994554)"><path
             d="m 172.944,284.404 c 11.404,-18.54 10.188,-34.201 -5.005,-42.411 -9.096,-4.918 -4.088,-11.404 -4.088,-11.404"
             transform="matrix(1.3333333,0,0,-1.3333333,0,566.92933)"
             style="fill:url(#linearGradient58);stroke:none"
             id="path58" /></g><path
           id="path60"
           d="m 0,0 c -1.029,-0.589 -1.37,-1.87 -0.758,-2.861 6.347,-10.315 8.619,-19.657 6.572,-27.01 -1.455,-5.227 -5.084,-9.438 -10.772,-12.517 -3.596,-1.942 -5.741,-4.392 -6.379,-7.278 -0.868,-3.922 1.51,-7.061 1.612,-7.192 0.71,-0.919 2.048,-1.105 3.008,-0.43 0.958,0.676 1.167,1.979 0.473,2.909 -0.011,0.018 -1.329,1.823 -0.854,3.881 0.381,1.646 1.812,3.149 4.252,4.469 6.749,3.65 11.071,8.719 12.84,15.077 2.355,8.465 -0.073,18.916 -7.032,30.222 C 2.354,0.262 1.024,0.587 0,0"
           style="fill:#050505 icc-color(sRGB-IEC61966-2, 0.1, 0.01998901, 0.01998901, 0.01998901);fill-opacity:1;fill-rule:nonzero;stroke:none"
           transform="matrix(0.35277776,0,0,-0.35277776,89.968104,125.02936)"
           clip-path="url(#clipPath61)" /><path
           id="path62"
           d="m 82.774681,121.75583 c -24.400933,0.80821 -23.500291,9.55851 -23.538391,22.12445 v 0 30.22424 c 0,2.55658 2.215092,3.58775 4.948414,3.58775 v 0 c 2.732969,0 4.951588,-1.03117 4.951588,-3.58775 v 0 c 0,0 0.630061,-8.63635 1.174397,-13.88992 v 0 c 0.778581,-12.20964 10.488436,-7.5124 21.768858,-2.81517 v 0 c 6.352116,2.64513 13.201653,5.29026 19.235203,4.91631 v 0 c 15.21954,-0.94332 27.20481,-6.19618 27.20481,-18.68064 v 0 c 0,-12.48727 -7.85495,-22.60917 -24.66339,-22.60917 v 0 c 0,0 -0.17675,-0.002 -0.57644,-0.002 v 0 c -2.06199,0 -10.06722,0.055 -30.505049,0.73202"
           style="fill:url(#linearGradient62);stroke:none;stroke-width:0.352778" /><path
           id="path63"
           d="m 0,0 v 85.676 c 0,-0.009 0.005,3.775 0.005,3.775 0.012,32.948 0.021,54.715 64.628,56.855 68.276,2.26 87.815,2.07 88.005,2.069 h 0.027 c 21.752,0 39.478,-6.271 51.26,-18.13 10.787,-10.854 16.489,-26.025 16.489,-43.874 0,-38.198 -40.835,-48.748 -75.09,-50.872 -18.03,-1.114 -39.295,7.8 -58.058,15.667 C 66.233,59.981 48.07,67.595 36.887,60.986 30.981,57.496 27.77,50.468 27.071,39.501 25.551,24.831 23.759,0.395 23.742,0.146 23.737,-7.032 16.298,-8.084 11.864,-8.084 7.435,-8.084 0,-7.032 0,0 M 64.487,150.474 C -4.299,148.197 -4.311,123.557 -4.321,89.454 L -4.327,85.682 V 0 c 0,-7.674 6.054,-12.261 16.191,-12.261 10.147,0 16.199,4.587 16.199,12.261 0.013,0.101 1.797,24.478 3.319,39.167 0.613,9.587 3.152,15.532 7.765,18.261 9.267,5.473 27.296,-2.086 46.394,-10.091 19.212,-8.054 40.987,-17.184 60.059,-16.002 51.034,3.165 79.14,22.71 79.14,55.036 0,18.943 -6.118,35.112 -17.691,46.763 -12.617,12.699 -31.424,19.412 -54.384,19.412 h 0.025 c -0.189,0.003 -19.775,0.2 -88.203,-2.072"
           style="fill:#3a3654 icc-color(sRGB-IEC61966-2, 0.1, 0.22698975, 0.21199036, 0.32899475);fill-opacity:1;fill-rule:nonzero;stroke:none"
           transform="matrix(0.35277776,0,0,-0.35277776,59.999385,174.10459)"
           clip-path="url(#clipPath64)" /><path
           id="path65"
           d="m 59.901982,144.70861 c 0.02611,2.8388 -0.372886,27.63096 1.192741,29.11968 v 0 c -0.492125,-1.09749 0.5842,-25.11636 0.570795,-26.6259 v 0 l -0.01482,-0.88371 v -1.24777 c -0.603603,-0.2226 -1.189214,-0.49706 -1.754717,-0.81068 v 0 z"
           style="fill:url(#linearGradient65);stroke:none;stroke-width:0.352778" /><path
           id="path67"
           d="m 83.437197,122.57145 c -23.87494,0.79128 -23.508404,9.58779 -23.508404,21.41467 v 0 l 0.0049,0.43744 c 0.55245,0.31362 1.125361,0.58773 1.713088,0.81069 v 0 c 0.0056,-11.19258 0.481542,-19.4049 23.509463,-20.1676 v 0 c 23.874936,-0.79093 30.410496,-0.71403 30.410496,-0.71403 v 0 c 9.1306,0 15.41639,3.08258 19.33046,7.89235 v 0 c -3.60327,-6.22371 -10.42564,-10.38754 -21.05025,-10.38754 v 0 c 0,0 -0.17321,-0.002 -0.5655,-0.002 v 0 c -2.0193,0 -9.85202,0.054 -29.844292,0.71614"
           style="fill:url(#linearGradient67);stroke:none;stroke-width:0.352778" /><path
           id="path69"
           d="m 84.873355,173.61239 c 0,4.6609 4.623506,6.33519 10.327922,6.33519 v 0 c 5.704063,0 10.329683,-1.67429 10.329683,-6.33519 v 0 -13.46129 l -20.657605,-7.02733 z"
           style="fill:url(#linearGradient69);stroke:none;stroke-width:0.352778" /><path
           id="path70"
           d="m 0,0 v -58.079 c 0,-12.925 11.168,-20.042 31.439,-20.042 20.277,0 31.445,7.117 31.445,20.042 v 38.158 c 0,1.152 -0.97,2.087 -2.164,2.087 -1.192,0 -2.162,-0.935 -2.162,-2.087 v -38.158 c 0,-13.116 -14.746,-15.869 -27.119,-15.869 -12.367,0 -27.112,2.753 -27.112,15.869 L 4.327,0 c 0,1.152 -0.97,2.086 -2.164,2.086 C 0.969,2.086 0,1.152 0,0"
           style="fill:#3a3654 icc-color(sRGB-IEC61966-2, 0.1, 0.22698975, 0.21199036, 0.32899475);fill-opacity:1;fill-rule:nonzero;stroke:none"
           transform="matrix(0.35277776,0,0,-0.35277776,84.110229,153.12359)"
           clip-path="url(#clipPath71)" /><g
           id="g73"
           clip-path="url(#clipPath74)"
           transform="matrix(0.26458333,0,0,0.26458333,29.346136,75.994554)"><path
             d="m 0,0 c 0,-4.971 -4.134,-9.001 -9.239,-9.001 -5.104,0 -9.24,4.03 -9.24,9.001 0,4.976 4.136,16.208 9.24,16.208 C -4.134,16.208 0,4.976 0,0"
             style="fill:#94aae0 icc-color(sRGB-IEC61966-2, 0.1, 0.57998657, 0.66699219, 0.87799072);fill-opacity:1;fill-rule:nonzero;stroke:none"
             transform="matrix(1.3333333,0,0,-1.3333333,234.4232,373.88373)"
             clip-path="url(#clipPath72)"
             id="path73" /></g><path
           id="path75"
           d="m 0,0 c 0,4.845 4.119,15.515 8.519,15.515 4.399,0 8.518,-10.67 8.518,-15.515 0,-4.582 -3.819,-8.307 -8.518,-8.307 C 3.824,-8.307 0,-4.582 0,0 m -1.443,0 c 0,-5.347 4.468,-9.697 9.962,-9.697 5.493,0 9.961,4.35 9.961,9.697 0,5.041 -4.204,16.907 -9.961,16.907 C 2.766,16.907 -1.443,5.041 -1.443,0"
           style="fill:#3a3654 icc-color(sRGB-IEC61966-2, 0.1, 0.22698975, 0.21199036, 0.32899475);fill-opacity:1;fill-rule:nonzero;stroke:none"
           transform="matrix(0.35277776,0,0,-0.35277776,85.106226,174.91796)"
           clip-path="url(#clipPath76)" /><path
           id="path77"
           d="m 0,0 c 0,4.451 5.173,12.447 8.958,12.447 0.36,0 0.71,-0.114 1.06,-0.288 -0.954,1.406 -2.03,2.342 -3.173,2.342 C 3.059,14.501 0,4.445 0,0"
           style="fill:#afc7ef icc-color(sRGB-IEC61966-2, 0.1, 0.68598938, 0.77999878, 0.93699646);fill-opacity:1;fill-rule:nonzero;stroke:none"
           transform="matrix(0.35277776,0,0,-0.35277776,85.408346,175.12811)"
           clip-path="url(#clipPath78)" /><g
           id="g80"
           clip-path="url(#clipPath81)"
           transform="matrix(0.26458333,0,0,0.26458333,29.346136,75.994554)"><path
             d="m 0,0 c 0,-6.556 -4.282,-11.89 -9.565,-11.89 -5.29,0 -9.573,5.334 -9.573,11.89 0,6.563 4.283,21.387 9.573,21.387 C -4.282,21.387 0,6.563 0,0"
             style="fill:#94aae0 icc-color(sRGB-IEC61966-2, 0.1, 0.57998657, 0.66699219, 0.87799072);fill-opacity:1;fill-rule:nonzero;stroke:none"
             transform="matrix(1.3333333,0,0,-1.3333333,244.4596,374.82253)"
             clip-path="url(#clipPath79)"
             id="path80" /></g><path
           id="path82"
           d="m 0,0 c 0,6.465 4.282,20.692 8.853,20.692 4.568,0 8.844,-14.227 8.844,-20.692 0,-6.17 -3.967,-11.192 -8.844,-11.192 C 3.973,-11.192 0,-6.17 0,0 m -1.442,0 c 0,-6.938 4.619,-12.585 10.295,-12.585 5.672,0 10.287,5.647 10.287,12.585 0,6.589 -4.345,22.081 -10.287,22.081 C 2.908,22.081 -1.442,6.589 -1.442,0"
           style="fill:#3a3654 icc-color(sRGB-IEC61966-2, 0.1, 0.22698975, 0.21199036, 0.32899475);fill-opacity:1;fill-rule:nonzero;stroke:none"
           transform="matrix(0.35277776,0,0,-0.35277776,87.528785,175.16635)"
           clip-path="url(#clipPath83)" /><path
           id="path84"
           d="m 0,0 c 0,6.321 5.178,17.681 8.958,17.681 0.361,0 0.716,-0.164 1.06,-0.406 -0.947,2.006 -2.03,3.329 -3.172,3.329 C 3.06,20.604 0,6.313 0,0"
           style="fill:#afc7ef icc-color(sRGB-IEC61966-2, 0.1, 0.68598938, 0.77999878, 0.93699646);fill-opacity:1;fill-rule:nonzero;stroke:none"
           transform="matrix(0.35277776,0,0,-0.35277776,88.18474,175.58598)"
           clip-path="url(#clipPath85)" /><g
           id="g87"
           clip-path="url(#clipPath88)"
           transform="matrix(0.26458333,0,0,0.26458333,29.346136,75.994554)"><path
             d="m 0,0 c 0,-4.641 -3.082,-8.402 -6.885,-8.402 -3.802,0 -6.885,3.761 -6.885,8.402 0,4.663 3.083,15.151 6.885,15.151 C -3.082,15.151 0,4.663 0,0"
             style="fill:#94aae0 icc-color(sRGB-IEC61966-2, 0.1, 0.57998657, 0.66699219, 0.87799072);fill-opacity:1;fill-rule:nonzero;stroke:none"
             transform="matrix(1.3333333,0,0,-1.3333333,251.1536,379.5296)"
             clip-path="url(#clipPath86)"
             id="path87" /></g><path
           id="path89"
           d="m 0,0 c 0,5.026 3.269,14.456 6.163,14.456 2.902,0 6.164,-9.43 6.164,-14.456 0,-4.252 -2.762,-7.705 -6.164,-7.705 C 2.766,-7.705 0,-4.252 0,0 m -1.443,0 c 0,-5.017 3.415,-9.098 7.606,-9.098 4.198,0 7.606,4.081 7.606,9.098 0,4.569 -3.031,15.846 -7.606,15.846 C 1.59,15.846 -1.443,4.569 -1.443,0"
           style="fill:#3a3654 icc-color(sRGB-IEC61966-2, 0.1, 0.22698975, 0.21199036, 0.32899475);fill-opacity:1;fill-rule:nonzero;stroke:none"
           transform="matrix(0.35277776,0,0,-0.35277776,91.194042,176.41176)"
           clip-path="url(#clipPath90)" /><path
           id="path91"
           d="M 0,0 C -0.349,3.314 2.878,8.809 5.393,9.205 5.629,9.243 5.871,9.188 6.113,9.097 5.375,10.052 4.541,10.809 3.827,10.508 1.335,9.438 -0.349,3.304 0,0"
           style="fill:#afc7ef icc-color(sRGB-IEC61966-2, 0.1, 0.68598938, 0.77999878, 0.93699646);fill-opacity:1;fill-rule:nonzero;stroke:none"
           transform="matrix(0.35277776,0,0,-0.35277776,91.961085,175.43439)"
           clip-path="url(#clipPath92)" /><path
           id="path93"
           d="m 116.48224,160.33948 v 12.74657 c 0,4.66055 4.6228,6.33342 10.32792,6.33342 v 0 c 5.70372,0 10.32934,-1.67287 10.32934,-6.33342 v 0 -22.18514 z"
           style="fill:url(#linearGradient93);stroke:none;stroke-width:0.352778" /><path
           id="path94"
           d="m 0,0 v -62.888 c 0,-13.115 -14.746,-15.866 -27.115,-15.866 -12.366,0 -27.112,2.751 -27.112,15.866 v 36.133 c 0,1.152 -0.968,2.088 -2.164,2.088 -1.193,0 -2.162,-0.936 -2.162,-2.088 v -36.133 c 0,-12.923 11.164,-20.042 31.438,-20.042 20.275,0 31.442,7.119 31.442,20.042 L 4.327,0 C 4.327,1.153 3.359,2.085 2.166,2.085 0.97,2.085 0,1.153 0,0"
           style="fill:#3a3654 icc-color(sRGB-IEC61966-2, 0.1, 0.22698975, 0.21199036, 0.32899475);fill-opacity:1;fill-rule:nonzero;stroke:none"
           transform="matrix(0.35277776,0,0,-0.35277776,136.3756,150.90081)"
           clip-path="url(#clipPath95)" /><g
           id="g97"
           clip-path="url(#clipPath98)"
           transform="matrix(0.26458333,0,0,0.26458333,29.346136,75.994554)"><path
             d="m 0,0 c 0,-4.967 -4.136,-8.997 -9.239,-8.997 -5.105,0 -9.24,4.03 -9.24,8.997 0,4.977 4.135,16.21 9.24,16.21 C -4.136,16.21 0,4.977 0,0"
             style="fill:#94aae0 icc-color(sRGB-IEC61966-2, 0.1, 0.57998657, 0.66699219, 0.87799072);fill-opacity:1;fill-rule:nonzero;stroke:none"
             transform="matrix(1.3333333,0,0,-1.3333333,353.89067,371.89413)"
             clip-path="url(#clipPath96)"
             id="path97" /></g><path
           id="path99"
           d="m 0,0 c 0,4.848 4.117,15.513 8.518,15.513 4.401,0 8.519,-10.665 8.519,-15.513 0,-4.578 -3.823,-8.305 -8.519,-8.305 C 3.821,-8.305 0,-4.578 0,0 m -1.442,0 c 0,-5.346 4.466,-9.695 9.96,-9.695 5.493,0 9.961,4.349 9.961,9.695 0,5.042 -4.206,16.905 -9.961,16.905 -5.754,0 -9.96,-11.863 -9.96,-16.905"
           style="fill:#3a3654 icc-color(sRGB-IEC61966-2, 0.1, 0.22698975, 0.21199036, 0.32899475);fill-opacity:1;fill-rule:nonzero;stroke:none"
           transform="matrix(0.35277776,0,0,-0.35277776,116.71547,174.39154)"
           clip-path="url(#clipPath100)" /><path
           id="path101"
           d="m 0,0 c 0,4.449 5.172,12.444 8.958,12.444 0.361,0 0.71,-0.113 1.06,-0.285 C 9.065,13.565 7.99,14.5 6.846,14.5 3.06,14.5 0,4.443 0,0"
           style="fill:#afc7ef icc-color(sRGB-IEC61966-2, 0.1, 0.68598938, 0.77999878, 0.93699646);fill-opacity:1;fill-rule:nonzero;stroke:none"
           transform="matrix(0.35277776,0,0,-0.35277776,117.01727,174.60032)"
           clip-path="url(#clipPath102)" /><g
           id="g104"
           clip-path="url(#clipPath105)"
           transform="matrix(0.26458333,0,0,0.26458333,29.346136,75.994554)"><path
             d="m 0,0 c 0,-6.56 -4.281,-11.893 -9.567,-11.893 -5.291,0 -9.573,5.333 -9.573,11.893 0,6.563 4.282,21.383 9.573,21.383 C -4.281,21.383 0,6.563 0,0"
             style="fill:#94aae0 icc-color(sRGB-IEC61966-2, 0.1, 0.57998657, 0.66699219, 0.87799072);fill-opacity:1;fill-rule:nonzero;stroke:none"
             transform="matrix(1.3333333,0,0,-1.3333333,363.9284,372.82773)"
             clip-path="url(#clipPath103)"
             id="path104" /></g><path
           id="path106"
           d="m 0,0 c 0,6.465 4.279,20.688 8.852,20.688 4.57,0 8.845,-14.223 8.845,-20.688 0,-6.173 -3.968,-11.196 -8.845,-11.196 C 3.969,-11.196 0,-6.173 0,0 m -1.441,0 c 0,-6.94 4.616,-12.585 10.293,-12.585 5.672,0 10.287,5.645 10.287,12.585 0,6.586 -4.343,22.081 -10.287,22.081 C 2.903,22.081 -1.441,6.586 -1.441,0"
           style="fill:#3a3654 icc-color(sRGB-IEC61966-2, 0.1, 0.22698975, 0.21199036, 0.32899475);fill-opacity:1;fill-rule:nonzero;stroke:none"
           transform="matrix(0.35277776,0,0,-0.35277776,119.13771,174.63856)"
           clip-path="url(#clipPath107)" /><path
           id="path108"
           d="m 0,0 c 0,6.32 5.178,17.68 8.957,17.68 0.361,0 0.716,-0.163 1.061,-0.404 C 9.071,19.282 7.989,20.601 6.845,20.601 3.059,20.601 0,6.314 0,0"
           style="fill:#afc7ef icc-color(sRGB-IEC61966-2, 0.1, 0.68598938, 0.77999878, 0.93699646);fill-opacity:1;fill-rule:nonzero;stroke:none"
           transform="matrix(0.35277776,0,0,-0.35277776,119.79402,175.05921)"
           clip-path="url(#clipPath109)" /><g
           id="g111"
           clip-path="url(#clipPath112)"
           transform="matrix(0.26458333,0,0,0.26458333,29.346136,75.994554)"><path
             d="m 0,0 c 0,-4.644 -3.081,-8.404 -6.884,-8.404 -3.802,0 -6.885,3.76 -6.885,8.404 0,4.661 3.083,15.151 6.885,15.151 C -3.081,15.151 0,4.661 0,0"
             style="fill:#94aae0 icc-color(sRGB-IEC61966-2, 0.1, 0.57998657, 0.66699219, 0.87799072);fill-opacity:1;fill-rule:nonzero;stroke:none"
             transform="matrix(1.3333333,0,0,-1.3333333,370.61973,377.53613)"
             clip-path="url(#clipPath110)"
             id="path111" /></g><path
           id="path113"
           d="m 0,0 c 0,5.024 3.267,14.453 6.165,14.453 2.898,0 6.164,-9.429 6.164,-14.453 0,-4.251 -2.767,-7.708 -6.164,-7.708 C 2.768,-7.708 0,-4.251 0,0 m -1.441,0 c 0,-5.02 3.411,-9.099 7.606,-9.099 4.194,0 7.605,4.079 7.605,9.099 0,4.566 -3.031,15.846 -7.605,15.846 C 1.59,15.846 -1.441,4.566 -1.441,0"
           style="fill:#3a3654 icc-color(sRGB-IEC61966-2, 0.1, 0.22698975, 0.21199036, 0.32899475);fill-opacity:1;fill-rule:nonzero;stroke:none"
           transform="matrix(0.35277776,0,0,-0.35277776,122.80261,175.88432)"
           clip-path="url(#clipPath114)" /><path
           id="path115"
           d="M 0,0 C -0.349,3.315 2.878,8.808 5.392,9.205 5.628,9.242 5.87,9.19 6.112,9.097 5.373,10.054 4.541,10.806 3.825,10.51 1.334,9.44 -0.349,3.305 0,0"
           style="fill:#afc7ef icc-color(sRGB-IEC61966-2, 0.1, 0.68598938, 0.77999878, 0.93699646);fill-opacity:1;fill-rule:nonzero;stroke:none"
           transform="matrix(0.35277776,0,0,-0.35277776,123.57054,174.90762)"
           clip-path="url(#clipPath116)" /><path
           id="path117"
           d="m 0,0 c -0.764,-1.038 -0.495,-2.466 0.606,-3.191 1.097,-0.726 2.609,-0.466 3.373,0.568 4.35,5.912 14.135,7.541 18.787,5.862 0.927,-0.337 2.098,-0.19 2.61,0.332 0.512,0.516 0.177,1.21 -0.751,1.546 C 18.255,7.419 5.76,7.835 0,0"
           style="fill:#3a3654 icc-color(sRGB-IEC61966-2, 0.1, 0.22698975, 0.21199036, 0.32899475);fill-opacity:1;fill-rule:nonzero;stroke:none"
           transform="matrix(0.35277776,0,0,-0.35277776,65.7074,131.55384)"
           clip-path="url(#clipPath118)" /><path
           id="path119"
           d="m 0,0 c -4.018,-0.848 -7.56,1.401 -7.908,5.019 -0.347,3.624 2.631,7.244 6.649,8.1 C 2.763,13.968 6.304,11.727 6.655,8.101 7,4.478 4.023,0.857 0,0 M 8.308,8.583 C 7.905,12.805 3.722,15.404 -1.045,14.4 -5.807,13.392 -9.344,9.165 -8.944,4.948 -8.543,0.734 -4.358,-1.87 0.403,-0.872 5.17,0.14 8.708,4.367 8.308,8.583"
           style="fill:#3a3654 icc-color(sRGB-IEC61966-2, 0.1, 0.22698975, 0.21199036, 0.32899475);fill-opacity:1;fill-rule:nonzero;stroke:none"
           transform="matrix(0.35277776,0,0,-0.35277776,72.359025,140.72007)"
           clip-path="url(#clipPath120)" /><path
           id="path121"
           d="m 0,0 c 0.305,-3.185 -2.3,-6.375 -5.818,-7.119 -3.532,-0.751 -6.629,1.23 -6.944,4.415 -0.303,3.186 2.303,6.372 5.822,7.117 C -3.411,5.164 -0.305,3.188 0,0"
           style="fill:#fcfcfc icc-color(sRGB-IEC61966-2, 0.1, 0.98799133, 0.98799133, 0.98799133);fill-opacity:1;fill-rule:nonzero;stroke:none"
           transform="matrix(0.35277776,0,0,-0.35277776,74.617085,137.96551)"
           clip-path="url(#clipPath122)" /><path
           id="path123"
           d="M 0,0 C -0.953,2.427 -3.482,3.834 -5.628,3.157 -6.778,2.801 -7.566,1.913 -7.934,0.802 l 3,-1.484 -2.755,-1.989 c 1.021,-2.289 3.436,-3.603 5.52,-2.951 C -0.015,-4.937 0.952,-2.426 0,0"
           style="fill:#3a3654 icc-color(sRGB-IEC61966-2, 0.1, 0.22698975, 0.21199036, 0.32899475);fill-opacity:1;fill-rule:nonzero;stroke:none"
           transform="matrix(0.35277776,0,0,-0.35277776,74.435191,137.97655)"
           clip-path="url(#clipPath124)" /><path
           id="path125"
           d="M 0,0 C 0.534,0.078 1.163,-0.568 1.391,-1.466 1.622,-2.352 1.374,-3.14 0.828,-3.224 0.288,-3.305 -0.339,-2.654 -0.571,-1.76 -0.795,-0.875 -0.542,-0.088 0,0"
           style="fill:#ffffff icc-color(sRGB-IEC61966-2, 0.1, 1, 1, 1);fill-opacity:1;fill-rule:nonzero;stroke:none"
           transform="matrix(0.35277776,0,0,-0.35277776,73.656258,137.6098)"
           clip-path="url(#clipPath126)" /><path
           id="path127"
           d="m 0,0 c -3.76,-2.902 -4.949,-7.116 -2.409,-9.506 -0.22,0.094 0.26,-0.52 0.057,-0.406 -4.001,2.218 -4.669,8.804 -0.986,12.679 C -0.177,6.097 9.31,8.567 9.24,7.282 8.848,5.809 6.071,3.94 2.623,1.908 1.512,1.277 0.712,0.549 0,0"
           style="fill:#3a3654 icc-color(sRGB-IEC61966-2, 0.1, 0.22698975, 0.21199036, 0.32899475);fill-opacity:1;fill-rule:nonzero;stroke:none"
           transform="matrix(0.35277776,0,0,-0.35277776,70.578239,136.31945)"
           clip-path="url(#clipPath128)" /><path
           id="path129"
           d="m 0,0 c -0.194,-0.988 0.475,-1.799 1.483,-1.799 h 5.793 c 1.011,0 1.992,0.811 2.186,1.799 l 1.543,7.952 c 0.194,0.989 1.174,1.799 2.185,1.799 h 6.269 c 3.576,0 6.519,0.376 8.826,1.129 2.311,0.749 4.407,2.011 6.301,3.78 1.582,1.456 2.867,3.063 3.848,4.823 0.979,1.756 1.679,3.696 2.089,5.817 1.002,5.149 0.016,8.979 -2.261,12.037 -2.862,3.831 -10.163,4.034 -10.163,4.034 -0.998,0.15 -2.638,0.277 -3.647,0.277 H 9.925 c -1.007,0 -1.989,-0.812 -2.183,-1.802 z m 22.701,34.792 c 3.596,0 5.989,-0.666 7.188,-1.992 1.196,-1.327 1.484,-3.608 0.858,-6.835 -0.656,-3.362 -1.916,-5.765 -3.782,-7.202 -1.866,-1.436 -6.699,-1.956 -6.699,-1.956 -1.005,-0.11 -2.65,-0.2 -3.657,-0.2 h -2.086 c -1.008,0 -1.679,0.811 -1.485,1.801 l 2.834,14.582 c 0.191,0.99 1.174,1.802 2.182,1.802 z"
           style="fill:#3a3654 icc-color(sRGB-IEC61966-2, 0.1, 0.22698975, 0.21199036, 0.32899475);fill-opacity:1;fill-rule:nonzero;stroke:#ffffff icc-color(sRGB-IEC61966-2, 0.1, 1, 1, 1);stroke-width:4;stroke-linecap:butt;stroke-linejoin:miter;stroke-miterlimit:4;stroke-dasharray:none;stroke-opacity:1"
           transform="matrix(0.35277776,0,0,-0.35277776,92.376235,150.74926)"
           clip-path="url(#clipPath130)" /><path
           id="path131"
           d="M 0,0 C 0.192,0.988 1.173,1.798 2.181,1.798 H 7.902 C 8.912,1.798 9.579,0.988 9.385,0 L 7.841,-7.953 C 7.648,-8.943 8.32,-9.75 9.326,-9.75 h 4.694 c 1.007,0 2.654,-0.086 3.656,-0.189 0,0 6.845,-0.081 9.065,-2.566 1.809,-2.024 2.595,-4.812 1.796,-8.923 l -3.576,-18.419 c -0.19,-0.99 -1.175,-1.8 -2.184,-1.8 h -5.868 c -1.009,0 -1.678,0.81 -1.485,1.8 l 3.038,15.625 c 0.192,0.989 0.408,2.621 0.482,3.63 0,0 0.135,1.849 -0.604,2.642 -0.736,0.796 -2.308,1.192 -4.71,1.192 H 7.962 c -1.01,0 -1.988,-0.808 -2.184,-1.798 L 1.646,-39.847 c -0.194,-0.99 -1.175,-1.8 -2.184,-1.8 H -6.26 c -1.009,0 -1.676,0.81 -1.484,1.8 z"
           style="fill:#3a3654 icc-color(sRGB-IEC61966-2, 0.1, 0.22698975, 0.21199036, 0.32899475);fill-opacity:1;fill-rule:nonzero;stroke:#ffffff icc-color(sRGB-IEC61966-2, 0.1, 1, 1, 1);stroke-width:4;stroke-linecap:butt;stroke-linejoin:miter;stroke-miterlimit:4;stroke-dasharray:none;stroke-opacity:1"
           transform="matrix(0.35277776,0,0,-0.35277776,109.89179,132.61719)"
           clip-path="url(#clipPath132)" /><path
           id="path133"
           d="m 0,0 c -0.194,-0.988 0.475,-1.799 1.484,-1.799 h 5.793 c 1.006,0 1.993,0.811 2.184,1.799 l 1.544,7.952 c 0.192,0.989 1.176,1.799 2.182,1.799 h 6.273 c 3.574,0 6.515,0.376 8.827,1.129 2.306,0.749 4.405,2.011 6.296,3.78 1.587,1.456 2.866,3.063 3.85,4.823 0.98,1.756 1.677,3.696 2.09,5.817 1.001,5.149 0.095,9.037 -2.263,12.037 -2.927,3.725 -10.163,4.034 -10.163,4.034 -0.998,0.15 -2.639,0.277 -3.648,0.277 H 9.923 c -1.007,0 -1.991,-0.812 -2.183,-1.802 z m 22.702,34.792 c 3.594,0 5.988,-0.666 7.19,-1.992 1.193,-1.327 1.478,-3.608 0.852,-6.835 -0.655,-3.362 -1.91,-5.765 -3.779,-7.202 -1.869,-1.436 -6.701,-1.956 -6.701,-1.956 -1.001,-0.11 -2.647,-0.2 -3.658,-0.2 h -2.087 c -1.01,0 -1.674,0.811 -1.484,1.801 l 2.832,14.582 c 0.195,0.99 1.177,1.802 2.185,1.802 z"
           style="fill:#3a3654 icc-color(sRGB-IEC61966-2, 0.1, 0.22698975, 0.21199036, 0.32899475);fill-opacity:1;fill-rule:nonzero;stroke:#ffffff icc-color(sRGB-IEC61966-2, 0.1, 1, 1, 1);stroke-width:4;stroke-linecap:butt;stroke-linejoin:miter;stroke-miterlimit:4;stroke-dasharray:none;stroke-opacity:1"
           transform="matrix(0.35277776,0,0,-0.35277776,120.12923,150.74926)"
           clip-path="url(#clipPath134)" /><path
           id="path135"
           d="m 0,0 c -0.194,-0.988 0.475,-1.799 1.483,-1.799 h 5.793 c 1.011,0 1.992,0.811 2.186,1.799 l 1.543,7.952 c 0.194,0.989 1.174,1.799 2.185,1.799 h 6.269 c 3.576,0 6.519,0.376 8.826,1.129 2.311,0.749 4.407,2.011 6.301,3.78 1.582,1.456 2.867,3.063 3.848,4.823 0.979,1.756 1.679,3.696 2.089,5.817 1.002,5.149 0.016,8.979 -2.261,12.037 -2.862,3.831 -10.163,4.034 -10.163,4.034 -0.998,0.15 -2.638,0.277 -3.647,0.277 H 9.925 c -1.007,0 -1.989,-0.812 -2.183,-1.802 z m 22.701,34.792 c 3.596,0 5.989,-0.666 7.188,-1.992 1.196,-1.327 1.484,-3.608 0.858,-6.835 -0.656,-3.362 -1.916,-5.765 -3.782,-7.202 -1.866,-1.436 -6.699,-1.956 -6.699,-1.956 -1.005,-0.11 -2.65,-0.2 -3.657,-0.2 h -2.086 c -1.008,0 -1.679,0.811 -1.485,1.801 l 2.834,14.582 c 0.191,0.99 1.174,1.802 2.182,1.802 z"
           style="fill:#3a3654 icc-color(sRGB-IEC61966-2, 0.1, 0.22698975, 0.21199036, 0.32899475);fill-opacity:1;fill-rule:nonzero;stroke:none"
           transform="matrix(0.35277776,0,0,-0.35277776,92.376235,150.74926)"
           clip-path="url(#clipPath136)" /><path
           id="path137"
           d="M 0,0 C 0.192,0.988 1.173,1.798 2.181,1.798 H 7.902 C 8.912,1.798 9.579,0.988 9.385,0 L 7.841,-7.953 C 7.648,-8.943 8.32,-9.75 9.326,-9.75 h 4.694 c 1.007,0 2.654,-0.086 3.656,-0.189 0,0 6.845,-0.081 9.065,-2.566 1.809,-2.024 2.595,-4.812 1.796,-8.923 l -3.576,-18.419 c -0.19,-0.99 -1.175,-1.8 -2.184,-1.8 h -5.868 c -1.009,0 -1.678,0.81 -1.485,1.8 l 3.038,15.625 c 0.192,0.989 0.408,2.621 0.482,3.63 0,0 0.135,1.849 -0.604,2.642 -0.736,0.796 -2.308,1.192 -4.71,1.192 H 7.962 c -1.01,0 -1.988,-0.808 -2.184,-1.798 L 1.646,-39.847 c -0.194,-0.99 -1.175,-1.8 -2.184,-1.8 H -6.26 c -1.009,0 -1.676,0.81 -1.484,1.8 z"
           style="fill:#3a3654 icc-color(sRGB-IEC61966-2, 0.1, 0.22698975, 0.21199036, 0.32899475);fill-opacity:1;fill-rule:nonzero;stroke:none"
           transform="matrix(0.35277776,0,0,-0.35277776,109.89179,132.61719)"
           clip-path="url(#clipPath138)" /><path
           id="path139"
           d="m 0,0 c -0.194,-0.988 0.475,-1.799 1.484,-1.799 h 5.793 c 1.006,0 1.993,0.811 2.184,1.799 l 1.544,7.952 c 0.192,0.989 1.176,1.799 2.182,1.799 h 6.273 c 3.574,0 6.515,0.376 8.827,1.129 2.306,0.749 4.405,2.011 6.296,3.78 1.587,1.456 2.866,3.063 3.85,4.823 0.98,1.756 1.677,3.696 2.09,5.817 1.001,5.149 0.095,9.037 -2.263,12.037 -2.927,3.725 -10.163,4.034 -10.163,4.034 -0.998,0.15 -2.639,0.277 -3.648,0.277 H 9.923 c -1.007,0 -1.991,-0.812 -2.183,-1.802 z m 22.702,34.792 c 3.594,0 5.988,-0.666 7.19,-1.992 1.193,-1.327 1.478,-3.608 0.852,-6.835 -0.655,-3.362 -1.91,-5.765 -3.779,-7.202 -1.869,-1.436 -6.701,-1.956 -6.701,-1.956 -1.001,-0.11 -2.647,-0.2 -3.658,-0.2 h -2.087 c -1.01,0 -1.674,0.811 -1.484,1.801 l 2.832,14.582 c 0.195,0.99 1.177,1.802 2.185,1.802 z"
           style="fill:#3a3654 icc-color(sRGB-IEC61966-2, 0.1, 0.22698975, 0.21199036, 0.32899475);fill-opacity:1;fill-rule:nonzero;stroke:none"
           transform="matrix(0.35277776,0,0,-0.35277776,120.12923,150.74926)"
           clip-path="url(#clipPath140)" /><path
           id="path141"
           d="m 88.520725,117.72499 c -3.821995,1.42593 -9.873191,5.58553 -9.873191,5.58553 v 0 l 10.42176,25.56474 c 0,0 -0.631825,-3.03882 3.445933,-3.66183 v 0 c 6.813903,-1.03999 8.216543,-6.77933 7.437967,-15.08901 v 0 c -1.029406,-10.96539 -5.903383,-12.79595 -8.988425,-12.7956 v 0 c -1.18498,0 -2.106083,0.26987 -2.444044,0.39617"
           style="fill:url(#linearGradient141);stroke:none;stroke-width:0.352778" /><path
           id="path142"
           d="m 0,0 c -10.96,-4.091 -27.749,-15.594 -28.46,-16.082 -0.972,-0.668 -1.199,-1.972 -0.504,-2.91 0.692,-0.938 2.045,-1.155 3.017,-0.486 0.169,0.113 17.056,11.685 27.507,15.586 0.327,0.121 8.018,2.905 15.399,-1.516 7.685,-4.605 12.552,-15.626 14.08,-31.877 2.433,-25.971 -3.331,-38.088 -19.269,-40.522 -4.52,-0.689 -7.809,-2.422 -9.781,-5.159 -2.589,-3.583 -1.809,-7.526 -1.772,-7.693 0.235,-1.122 1.361,-1.844 2.526,-1.629 1.167,0.213 1.933,1.307 1.719,2.434 -0.005,0.02 -0.435,2.447 1.11,4.548 1.28,1.739 3.592,2.877 6.873,3.38 23.697,3.616 24.689,25.958 22.903,45.018 -1.679,17.86 -7.1,29.651 -16.105,35.044 C 10.204,3.55 1.02,0.38 0,0"
           style="fill:#3a3654 icc-color(sRGB-IEC61966-2, 0.1, 0.22698975, 0.21199036, 0.32899475);fill-opacity:1;fill-rule:nonzero;stroke:none"
           transform="matrix(0.35277776,0,0,-0.35277776,88.244536,117.03813)"
           clip-path="url(#clipPath143)" /><path
           id="path144"
           d="m 88.421241,118.57342 c -3.808941,1.42593 -11.165063,6.69572 -11.165063,6.69572 v 0 c 0,0 -0.99448,1.76424 0.987425,1.38148 v 0 c 0,0 4.311297,-3.01202 6.593769,-4.44041 v 0 c 6.851297,-4.28449 10.654947,-2.09374 10.654947,-2.09374 v 0 c -1.662642,-1.52012 -3.440994,-1.91065 -4.817181,-1.91065 v 0 c -1.089377,0 -1.926519,0.24483 -2.253897,0.3676"
           style="fill:url(#linearGradient144);stroke:none;stroke-width:0.352778" /><path
           id="path145"
           d="m 0,0 c -0.168,-9.86 -3.433,-18.839 -8.525,-23.419 -2.31,-2.081 -4.887,-3.111 -7.459,-2.985 -0.793,0.043 -1.47,-0.546 -1.515,-1.313 -0.038,-0.77 0.572,-1.422 1.368,-1.462 3.37,-0.171 6.679,1.117 9.575,3.725 5.643,5.079 9.26,14.816 9.44,25.413 C 2.899,0.723 2.266,1.357 1.468,1.37 0.67,1.381 0.015,0.768 0,0"
           style="fill:#3a3654 icc-color(sRGB-IEC61966-2, 0.1, 0.22698975, 0.21199036, 0.32899475);fill-opacity:1;fill-rule:nonzero;stroke:none"
           transform="matrix(0.35277776,0,0,-0.35277776,82.365283,142.42829)"
           clip-path="url(#clipPath146)" /><path
           id="path147"
           d="m 0,0 c -1.086,-2.491 -2.985,-4.078 -5.213,-4.342 -2.172,-0.257 -4.379,0.759 -5.906,2.72 -0.475,0.614 -1.383,0.739 -2.019,0.277 -0.636,-0.46 -0.766,-1.332 -0.287,-1.945 2.154,-2.771 5.358,-4.195 8.566,-3.815 3.282,0.395 6.02,2.592 7.519,6.03 C 2.968,-0.367 2.62,0.442 1.889,0.744 1.152,1.04 0.311,0.708 0,0"
           style="fill:#3a3654 icc-color(sRGB-IEC61966-2, 0.1, 0.22698975, 0.21199036, 0.32899475);fill-opacity:1;fill-rule:nonzero;stroke:none"
           transform="matrix(0.35277776,0,0,-0.35277776,84.569299,139.94456)"
           clip-path="url(#clipPath148)" /></g><g
         id="g49"
         transform="translate(2.6458334)"><g
           id="circles-9"
           fill="#ff9900"
           transform="matrix(0.25057386,0,0,0.25057386,181.54418,151.5723)"
           style="fill:#47547d;fill-opacity:1"><circle
             id="n-1"
             cx="50"
             cy="18.4"
             r="18.4"
             style="fill:#3a3654;fill-opacity:1" /><circle
             id="ne-2"
             cx="72.400002"
             cy="27.6"
             r="18.4"
             style="fill:#3a3654;fill-opacity:1" /><circle
             id="e-7"
             cx="81.599998"
             cy="50"
             r="18.4"
             style="fill:#3a3654;fill-opacity:1" /><circle
             id="se-0"
             cx="72.400002"
             cy="72.400002"
             r="18.4"
             style="fill:#3a3654;fill-opacity:1" /><circle
             id="s-9"
             cx="50"
             cy="81.599998"
             r="18.4"
             style="fill:#3a3654;fill-opacity:1" /><circle
             id="sw-3"
             cx="27.6"
             cy="72.400002"
             r="18.4"
             style="fill:#3a3654;fill-opacity:1" /><circle
             id="nw-0"
             cx="27.6"
             cy="27.6"
             r="18.4"
             style="fill:#3a3654;fill-opacity:1" /></g><path
           id="black-star-2"
           d="m 197.35188,156.1791 c 0,-1.8109 -1.46811,-3.27901 -3.28252,-3.27901 -1.8129,0 -3.28151,1.46811 -3.28151,3.27901 -1.27793,-1.28043 -3.35644,-1.28043 -4.63486,0 -1.28269,1.28294 -1.28269,3.35969 0,4.64163 -1.81266,0 -3.28327,1.46811 -3.28327,3.27876 0,1.81165 1.47086,3.28202 3.28327,3.28202 -1.28269,1.28043 -1.28269,3.35643 0,4.63937 1.27842,1.27893 3.35693,1.27893 4.63486,0 0,1.81115 1.46836,3.27826 3.28151,3.27826 1.81416,0 3.28252,-1.46711 3.28252,-3.27826 1.28244,1.27893 3.3617,1.27893 4.63888,0 1.27817,-1.28294 1.27817,-3.36019 0,-4.63937 1.80814,0 3.27775,-1.47062 3.27775,-3.28202 0,-1.8109 -1.46961,-3.27876 -3.27775,-3.27876 1.27817,-1.28269 1.27817,-3.35919 0,-4.64163 -1.27718,-1.28043 -3.35594,-1.28043 -4.63888,0 z"
           style="fill:#ff9900;fill-opacity:1;stroke-width:0.251;stroke-dasharray:none" /><path
           id="white-star-6"
           fill="#ffffff"
           d="m 195.32649,157.43698 v 3.63032 l 2.57014,-2.56914 c 0,-0.45404 0.17315,-0.90657 0.51769,-1.25412 0.69659,-0.69434 1.82292,-0.69434 2.51175,0 0.69434,0.69309 0.69434,1.81791 0,2.5125 -0.34504,0.34454 -0.80059,0.51919 -1.25663,0.51919 l -2.56437,2.56788 h 3.63056 c 0.32324,-0.32073 0.76525,-0.52019 1.25563,-0.52019 0.97724,0 1.77356,0.79658 1.77356,1.77582 0,0.97874 -0.79632,1.77607 -1.77356,1.77607 -0.49038,0 -0.93239,-0.19996 -1.25563,-0.51919 h -3.63081 l 2.56312,2.56688 c 0.45704,0 0.91259,0.17389 1.25662,0.52269 0.6951,0.69134 0.6951,1.81666 0,2.50825 -0.68907,0.69509 -1.8139,0.69509 -2.512,0 -0.34379,-0.34379 -0.51718,-0.79983 -0.51718,-1.25362 l -2.56964,-2.56889 v 3.63307 c 0.31848,0.31974 0.5222,0.76526 0.5222,1.25613 0,0.97874 -0.79607,1.77331 -1.77858,1.77331 -0.98199,0 -1.77757,-0.79357 -1.77757,-1.77331 0,-0.49087 0.20322,-0.93514 0.52145,-1.25613 v -3.63307 l -2.56463,2.56889 c 0,0.45404 -0.17665,0.90883 -0.52219,1.25362 -0.69384,0.69459 -1.81691,0.69459 -2.51175,0 -0.69535,-0.69259 -0.69535,-1.81741 0,-2.50875 0.34504,-0.3483 0.80534,-0.5227 1.25587,-0.5227 l 2.57014,-2.56637 h -3.62956 c -0.32299,0.31973 -0.76977,0.51919 -1.25663,0.51919 -0.9815,0 -1.77807,-0.79683 -1.77807,-1.77607 0,-0.97924 0.79607,-1.77582 1.77807,-1.77582 0.48611,0 0.93339,0.19946 1.25663,0.52019 h 3.63031 l -2.56989,-2.56738 c -0.45028,0 -0.91008,-0.17465 -1.25587,-0.51893 -0.69534,-0.6946 -0.69534,-1.81917 0,-2.51251 0.69484,-0.69434 1.81816,-0.69434 2.5125,0 0.34454,0.3473 0.52195,0.80058 0.52195,1.25412 l 2.56462,2.56889 v -3.63032 c -0.31823,-0.32249 -0.52169,-0.765 -0.52169,-1.25863 0,-0.97924 0.79557,-1.77381 1.77807,-1.77381 0.982,0 1.77832,0.79382 1.77832,1.77381 -5e-4,0.49413 -0.20447,0.93589 -0.52295,1.25813 z"
           style="stroke-width:0.250574" /></g></g><g
       id="g2"
       transform="matrix(0.39006178,0,0,0.39006178,140.10694,85.012886)"><g
         id="svg-textbox"><path
           id="text-backdrop"
           fill="#000000"
           d="m 5.3,50 h 89.38 v 40 q 0,5 -5,5 H 10.3 q -5,0 -5,-5 z"
           style="fill:#3a3654;fill-opacity:1" /><path
           id="shine"
           fill="#3f3f3f"
           d="m 14.657,54.211 h 71.394 c 2.908,0 5.312,2.385 5.312,5.315 v 17.91 C 63.779,74.033 36.437,69.311 9.352,69.753 V 59.526 c 10e-4,-2.93 2.391,-5.315 5.305,-5.315 z" /><g
           id="svg-text"><title
             id="title2">SVG</title><path
             id="S"
             fill="#ffffff"
             stroke="#000000"
             stroke-width="0.5035"
             d="m 18.312,72.927 c -2.103,-2.107 -3.407,-5.028 -3.407,-8.253 0,-6.445 5.223,-11.672 11.666,-11.672 6.446,0 11.667,5.225 11.667,11.672 h -6.832 c 0,-2.674 -2.168,-4.837 -4.835,-4.837 -2.663,0 -4.838,2.163 -4.838,4.837 0,1.338 0.549,2.536 1.415,3.42 v 0 c 0.883,0.874 2.101,1.405 3.423,1.405 v 0.012 c 3.232,0 6.145,1.309 8.243,3.416 v 0 c 2.118,2.111 3.424,5.034 3.424,8.248 0,6.454 -5.221,11.68 -11.667,11.68 -6.442,0 -11.666,-5.222 -11.666,-11.68 h 6.828 c 0,2.679 2.175,4.835 4.838,4.835 2.667,0 4.835,-2.156 4.835,-4.835 0,-1.329 -0.545,-2.527 -1.429,-3.407 v 0 C 29.113,76.888 27.895,76.35 26.571,76.35 v 0 c -3.23,0 -6.142,-1.314 -8.259,-3.423 z" /><polygon
             id="V"
             fill="#ffffff"
             stroke="#000000"
             stroke-width="0.5035"
             points="38.236,53.005 45.082,53.005 49.92,76.342 54.755,53.005 61.588,53.005 53.344,92.854 46.494,92.854 " /><path
             id="G"
             fill="#ffffff"
             stroke="#000000"
             stroke-width="0.5035"
             d="m 73.255,69.513 h 11.683 v 11.664 0 c 0,6.452 -5.226,11.678 -11.669,11.678 -6.441,0 -11.666,-5.226 -11.666,-11.678 v 0 -16.501 H 61.586 C 61.586,58.229 66.827,53 73.253,53 c 6.459,0 11.683,5.225 11.683,11.676 h -6.849 c 0,-2.674 -2.152,-4.837 -4.834,-4.837 -2.647,0 -4.82,2.163 -4.82,4.837 v 16.501 0 c 0,2.675 2.173,4.837 4.82,4.837 2.682,0 4.834,-2.162 4.834,-4.827 v -0.012 -4.827 h -4.834 z" /></g></g></g></g></svg>
